<svg width="392" height="100" viewBox="0 0 392 100" fill="none" xmlns="http://www.w3.org/2000/svg">
<path d="M82.8125 29.6875H12.5C11.2568 29.6875 10.0645 30.1814 9.18544 31.0604C8.30636 31.9395 7.8125 33.1318 7.8125 34.375V53.125C7.82719 62.9775 11.5556 72.4623 18.2539 79.6875H12.5C11.2568 79.6875 10.0645 80.1814 9.18544 81.0604C8.30636 81.9395 7.8125 83.1318 7.8125 84.375C7.8125 85.6182 8.30636 86.8105 9.18544 87.6896C10.0645 88.5686 11.2568 89.0625 12.5 89.0625H81.25C82.4932 89.0625 83.6855 88.5686 84.5646 87.6896C85.4436 86.8105 85.9375 85.6182 85.9375 84.375C85.9375 83.1318 85.4436 81.9395 84.5646 81.0604C83.6855 80.1814 82.4932 79.6875 81.25 79.6875H75.4961C78.8643 76.0501 81.5149 71.809 83.3086 67.1875C87.7805 67.0584 92.0258 65.1907 95.1425 61.9813C98.2593 58.7719 100.002 54.4737 100 50V46.875C99.9948 42.3182 98.1824 37.9495 94.9602 34.7273C91.738 31.5051 87.3693 29.6927 82.8125 29.6875ZM76.5625 53.125C76.5526 58.6368 75.0138 64.0379 72.1174 68.7274C69.2209 73.4168 65.0804 77.2109 60.1562 79.6875H33.5938C28.6696 77.2109 24.5291 73.4168 21.6326 68.7274C18.7362 64.0379 17.1974 58.6368 17.1875 53.125V39.0625H76.5625V53.125ZM90.625 50C90.6235 51.56 90.1551 53.0838 89.28 54.3753C88.4049 55.6667 87.1632 56.6666 85.7148 57.2461C85.8637 55.8775 85.9381 54.5017 85.9375 53.125V39.7188C87.3301 40.3265 88.5152 41.3272 89.3478 42.5983C90.1804 43.8693 90.6242 45.3556 90.625 46.875V50ZM26.5625 18.75V9.375C26.5625 8.1318 27.0564 6.93951 27.9354 6.06044C28.8145 5.18136 30.0068 4.6875 31.25 4.6875C32.4932 4.6875 33.6855 5.18136 34.5646 6.06044C35.4436 6.93951 35.9375 8.1318 35.9375 9.375V18.75C35.9375 19.9932 35.4436 21.1855 34.5646 22.0646C33.6855 22.9436 32.4932 23.4375 31.25 23.4375C30.0068 23.4375 28.8145 22.9436 27.9354 22.0646C27.0564 21.1855 26.5625 19.9932 26.5625 18.75ZM42.1875 18.75V9.375C42.1875 8.1318 42.6814 6.93951 43.5604 6.06044C44.4395 5.18136 45.6318 4.6875 46.875 4.6875C48.1182 4.6875 49.3105 5.18136 50.1896 6.06044C51.0686 6.93951 51.5625 8.1318 51.5625 9.375V18.75C51.5625 19.9932 51.0686 21.1855 50.1896 22.0646C49.3105 22.9436 48.1182 23.4375 46.875 23.4375C45.6318 23.4375 44.4395 22.9436 43.5604 22.0646C42.6814 21.1855 42.1875 19.9932 42.1875 18.75ZM57.8125 18.75V9.375C57.8125 8.1318 58.3064 6.93951 59.1854 6.06044C60.0645 5.18136 61.2568 4.6875 62.5 4.6875C63.7432 4.6875 64.9355 5.18136 65.8146 6.06044C66.6936 6.93951 67.1875 8.1318 67.1875 9.375V18.75C67.1875 19.9932 66.6936 21.1855 65.8146 22.0646C64.9355 22.9436 63.7432 23.4375 62.5 23.4375C61.2568 23.4375 60.0645 22.9436 59.1854 22.0646C58.3064 21.1855 57.8125 19.9932 57.8125 18.75Z" fill="#312727"/>
<path d="M140.993 45.652H136.212C136.075 44.8679 135.824 44.1733 135.457 43.5682C135.091 42.9545 134.635 42.4347 134.089 42.0085C133.544 41.5824 132.922 41.2628 132.223 41.0497C131.533 40.8281 130.787 40.7173 129.986 40.7173C128.563 40.7173 127.301 41.0753 126.202 41.7912C125.102 42.4986 124.241 43.5384 123.619 44.9105C122.997 46.2741 122.686 47.9403 122.686 49.9091C122.686 51.9119 122.997 53.5994 123.619 54.9716C124.25 56.3352 125.111 57.3665 126.202 58.0653C127.301 58.7557 128.558 59.1009 129.973 59.1009C130.757 59.1009 131.49 58.9986 132.172 58.794C132.862 58.581 133.48 58.2699 134.026 57.8608C134.58 57.4517 135.044 56.9489 135.419 56.3523C135.803 55.7557 136.067 55.0739 136.212 54.3068L140.993 54.3324C140.814 55.5767 140.426 56.7443 139.83 57.8352C139.241 58.9261 138.47 59.8892 137.516 60.7244C136.561 61.5511 135.445 62.1989 134.166 62.6676C132.888 63.1278 131.469 63.358 129.909 63.358C127.608 63.358 125.554 62.8253 123.747 61.7599C121.94 60.6946 120.517 59.1562 119.477 57.1449C118.438 55.1335 117.918 52.7216 117.918 49.9091C117.918 47.0881 118.442 44.6761 119.49 42.6733C120.538 40.6619 121.966 39.1236 123.773 38.0582C125.58 36.9929 127.625 36.4602 129.909 36.4602C131.366 36.4602 132.722 36.6648 133.974 37.0739C135.227 37.483 136.344 38.0838 137.324 38.8764C138.304 39.6605 139.109 40.6236 139.74 41.7656C140.379 42.8991 140.797 44.1946 140.993 45.652ZM150.782 63.3963C149.538 63.3963 148.417 63.1747 147.42 62.7315C146.431 62.2798 145.647 61.6151 145.068 60.7372C144.497 59.8594 144.211 58.777 144.211 57.4901C144.211 56.3821 144.416 55.4659 144.825 54.7415C145.234 54.017 145.792 53.4375 146.5 53.0028C147.207 52.5682 148.004 52.2401 148.89 52.0185C149.785 51.7884 150.71 51.6222 151.664 51.5199C152.815 51.4006 153.748 51.294 154.464 51.2003C155.18 51.098 155.7 50.9446 156.024 50.7401C156.356 50.527 156.522 50.1989 156.522 49.7557V49.679C156.522 48.7159 156.237 47.9702 155.666 47.4418C155.095 46.9134 154.272 46.6491 153.199 46.6491C152.065 46.6491 151.166 46.8963 150.501 47.3906C149.845 47.8849 149.402 48.4687 149.172 49.142L144.85 48.5284C145.191 47.3352 145.754 46.3381 146.538 45.5369C147.322 44.7273 148.281 44.1222 149.414 43.7216C150.548 43.3125 151.801 43.108 153.173 43.108C154.119 43.108 155.061 43.2188 155.998 43.4403C156.936 43.6619 157.792 44.0284 158.568 44.5398C159.343 45.0426 159.966 45.7287 160.434 46.598C160.912 47.4673 161.15 48.554 161.15 49.858V63H156.701V60.3026H156.548C156.267 60.848 155.87 61.3594 155.359 61.8366C154.856 62.3054 154.221 62.6847 153.454 62.9744C152.696 63.2557 151.805 63.3963 150.782 63.3963ZM151.984 59.9957C152.913 59.9957 153.718 59.8125 154.4 59.446C155.082 59.071 155.606 58.5767 155.973 57.9631C156.348 57.3494 156.535 56.6804 156.535 55.956V53.642C156.39 53.7614 156.143 53.8722 155.794 53.9744C155.453 54.0767 155.069 54.1662 154.643 54.2429C154.217 54.3196 153.795 54.3878 153.377 54.4474C152.96 54.5071 152.598 54.5582 152.291 54.6009C151.6 54.6946 150.983 54.848 150.437 55.0611C149.892 55.2741 149.461 55.5724 149.146 55.956C148.831 56.331 148.673 56.8168 148.673 57.4134C148.673 58.2656 148.984 58.9091 149.606 59.3438C150.228 59.7784 151.021 59.9957 151.984 59.9957ZM165.804 70.3636V43.3636H170.355V46.6108H170.623C170.862 46.1335 171.199 45.6264 171.633 45.0895C172.068 44.544 172.656 44.0795 173.397 43.696C174.139 43.304 175.085 43.108 176.235 43.108C177.752 43.108 179.12 43.4957 180.339 44.2713C181.566 45.0384 182.538 46.1761 183.254 47.6847C183.978 49.1847 184.341 51.0256 184.341 53.2074C184.341 55.3636 183.987 57.196 183.279 58.7045C182.572 60.2131 181.609 61.3636 180.39 62.1562C179.172 62.9489 177.791 63.3452 176.248 63.3452C175.123 63.3452 174.19 63.1577 173.449 62.7827C172.707 62.4077 172.11 61.956 171.659 61.4276C171.216 60.8906 170.87 60.3835 170.623 59.9062H170.431V70.3636H165.804ZM170.342 53.1818C170.342 54.4517 170.521 55.5639 170.879 56.5185C171.245 57.473 171.77 58.2187 172.451 58.7557C173.142 59.2841 173.977 59.5483 174.957 59.5483C175.98 59.5483 176.836 59.2756 177.527 58.7301C178.217 58.1761 178.737 57.4219 179.086 56.4673C179.444 55.5043 179.623 54.4091 179.623 53.1818C179.623 51.9631 179.449 50.8807 179.099 49.9347C178.75 48.9886 178.23 48.2472 177.539 47.7102C176.849 47.1733 175.988 46.9048 174.957 46.9048C173.968 46.9048 173.129 47.1648 172.439 47.6847C171.748 48.2045 171.224 48.9332 170.866 49.8707C170.517 50.8082 170.342 51.9119 170.342 53.1818ZM188.304 63V43.3636H192.931V63H188.304ZM190.63 40.5767C189.897 40.5767 189.267 40.3338 188.738 39.848C188.21 39.3537 187.946 38.7614 187.946 38.071C187.946 37.3722 188.21 36.7798 188.738 36.294C189.267 35.7997 189.897 35.5526 190.63 35.5526C191.372 35.5526 192.002 35.7997 192.522 36.294C193.051 36.7798 193.315 37.3722 193.315 38.071C193.315 38.7614 193.051 39.3537 192.522 39.848C192.002 40.3338 191.372 40.5767 190.63 40.5767ZM207.496 43.3636V46.9432H196.207V43.3636H207.496ZM198.994 38.6591H203.622V57.0938C203.622 57.7159 203.716 58.1932 203.903 58.5256C204.099 58.8494 204.355 59.071 204.67 59.1903C204.986 59.3097 205.335 59.3693 205.719 59.3693C206.009 59.3693 206.273 59.348 206.511 59.3054C206.759 59.2628 206.946 59.2244 207.074 59.1903L207.854 62.8082C207.607 62.8935 207.253 62.9872 206.793 63.0895C206.341 63.1918 205.787 63.2514 205.131 63.2685C203.972 63.3026 202.928 63.1278 201.999 62.7443C201.07 62.3523 200.332 61.7472 199.787 60.929C199.25 60.1108 198.986 59.0881 198.994 57.8608V38.6591ZM217.017 63.3963C215.772 63.3963 214.652 63.1747 213.654 62.7315C212.666 62.2798 211.882 61.6151 211.302 60.7372C210.731 59.8594 210.446 58.777 210.446 57.4901C210.446 56.3821 210.65 55.4659 211.059 54.7415C211.468 54.017 212.027 53.4375 212.734 53.0028C213.441 52.5682 214.238 52.2401 215.125 52.0185C216.02 51.7884 216.944 51.6222 217.899 51.5199C219.049 51.4006 219.983 51.294 220.699 51.2003C221.414 51.098 221.934 50.9446 222.258 50.7401C222.591 50.527 222.757 50.1989 222.757 49.7557V49.679C222.757 48.7159 222.471 47.9702 221.9 47.4418C221.329 46.9134 220.507 46.6491 219.433 46.6491C218.299 46.6491 217.4 46.8963 216.735 47.3906C216.079 47.8849 215.636 48.4687 215.406 49.142L211.085 48.5284C211.426 47.3352 211.988 46.3381 212.772 45.5369C213.556 44.7273 214.515 44.1222 215.649 43.7216C216.782 43.3125 218.035 43.108 219.407 43.108C220.353 43.108 221.295 43.2188 222.233 43.4403C223.17 43.6619 224.027 44.0284 224.802 44.5398C225.578 45.0426 226.2 45.7287 226.669 46.598C227.146 47.4673 227.385 48.554 227.385 49.858V63H222.936V60.3026H222.782C222.501 60.848 222.105 61.3594 221.593 61.8366C221.091 62.3054 220.456 62.6847 219.689 62.9744C218.93 63.2557 218.039 63.3963 217.017 63.3963ZM218.218 59.9957C219.147 59.9957 219.953 59.8125 220.635 59.446C221.316 59.071 221.841 58.5767 222.207 57.9631C222.582 57.3494 222.77 56.6804 222.77 55.956V53.642C222.625 53.7614 222.377 53.8722 222.028 53.9744C221.687 54.0767 221.304 54.1662 220.877 54.2429C220.451 54.3196 220.029 54.3878 219.612 54.4474C219.194 54.5071 218.832 54.5582 218.525 54.6009C217.835 54.6946 217.217 54.848 216.672 55.0611C216.126 55.2741 215.696 55.5724 215.38 55.956C215.065 56.331 214.907 56.8168 214.907 57.4134C214.907 58.2656 215.218 58.9091 215.841 59.3438C216.463 59.7784 217.255 59.9957 218.218 59.9957ZM236.666 36.8182V63H232.038V36.8182H236.666ZM272.969 45.652H268.188C268.052 44.8679 267.8 44.1733 267.434 43.5682C267.067 42.9545 266.612 42.4347 266.066 42.0085C265.521 41.5824 264.898 41.2628 264.2 41.0497C263.509 40.8281 262.763 40.7173 261.962 40.7173C260.539 40.7173 259.278 41.0753 258.178 41.7912C257.079 42.4986 256.218 43.5384 255.596 44.9105C254.974 46.2741 254.663 47.9403 254.663 49.9091C254.663 51.9119 254.974 53.5994 255.596 54.9716C256.227 56.3352 257.087 57.3665 258.178 58.0653C259.278 58.7557 260.535 59.1009 261.95 59.1009C262.734 59.1009 263.467 58.9986 264.148 58.794C264.839 58.581 265.457 58.2699 266.002 57.8608C266.556 57.4517 267.021 56.9489 267.396 56.3523C267.779 55.7557 268.043 55.0739 268.188 54.3068L272.969 54.3324C272.79 55.5767 272.403 56.7443 271.806 57.8352C271.218 58.9261 270.447 59.8892 269.492 60.7244C268.538 61.5511 267.421 62.1989 266.143 62.6676C264.864 63.1278 263.445 63.358 261.886 63.358C259.585 63.358 257.531 62.8253 255.724 61.7599C253.917 60.6946 252.494 59.1562 251.454 57.1449C250.414 55.1335 249.894 52.7216 249.894 49.9091C249.894 47.0881 250.418 44.6761 251.467 42.6733C252.515 40.6619 253.942 39.1236 255.749 38.0582C257.556 36.9929 259.602 36.4602 261.886 36.4602C263.343 36.4602 264.698 36.6648 265.951 37.0739C267.204 37.483 268.32 38.0838 269.3 38.8764C270.281 39.6605 271.086 40.6236 271.717 41.7656C272.356 42.8991 272.773 44.1946 272.969 45.652ZM285.674 63.3835C283.756 63.3835 282.094 62.9616 280.688 62.1179C279.282 61.2741 278.191 60.0937 277.415 58.5767C276.648 57.0597 276.265 55.2869 276.265 53.2585C276.265 51.2301 276.648 49.4531 277.415 47.9276C278.191 46.402 279.282 45.2173 280.688 44.3736C282.094 43.5298 283.756 43.108 285.674 43.108C287.591 43.108 289.253 43.5298 290.659 44.3736C292.066 45.2173 293.152 46.402 293.919 47.9276C294.695 49.4531 295.083 51.2301 295.083 53.2585C295.083 55.2869 294.695 57.0597 293.919 58.5767C293.152 60.0937 292.066 61.2741 290.659 62.1179C289.253 62.9616 287.591 63.3835 285.674 63.3835ZM285.699 59.6761C286.739 59.6761 287.608 59.3906 288.307 58.8196C289.006 58.2401 289.526 57.4645 289.867 56.4929C290.216 55.5213 290.391 54.4389 290.391 53.2457C290.391 52.044 290.216 50.9574 289.867 49.9858C289.526 49.0057 289.006 48.2259 288.307 47.6463C287.608 47.0668 286.739 46.777 285.699 46.777C284.634 46.777 283.748 47.0668 283.04 47.6463C282.341 48.2259 281.817 49.0057 281.468 49.9858C281.127 50.9574 280.956 52.044 280.956 53.2457C280.956 54.4389 281.127 55.5213 281.468 56.4929C281.817 57.4645 282.341 58.2401 283.04 58.8196C283.748 59.3906 284.634 59.6761 285.699 59.6761ZM303.638 51.4943V63H299.011V43.3636H303.434V46.7003H303.664C304.116 45.6009 304.836 44.7273 305.825 44.0795C306.822 43.4318 308.053 43.108 309.519 43.108C310.874 43.108 312.055 43.3977 313.06 43.9773C314.075 44.5568 314.859 45.3963 315.413 46.4957C315.975 47.5952 316.252 48.929 316.244 50.4972V63H311.616V51.2131C311.616 49.9006 311.275 48.8736 310.593 48.1321C309.92 47.3906 308.987 47.0199 307.793 47.0199C306.984 47.0199 306.263 47.1989 305.633 47.5568C305.011 47.9062 304.521 48.4134 304.163 49.0781C303.813 49.7429 303.638 50.5483 303.638 51.4943ZM330.754 43.3636V46.9432H319.465V43.3636H330.754ZM322.252 38.6591H326.88V57.0938C326.88 57.7159 326.974 58.1932 327.161 58.5256C327.357 58.8494 327.613 59.071 327.928 59.1903C328.244 59.3097 328.593 59.3693 328.977 59.3693C329.266 59.3693 329.531 59.348 329.769 59.3054C330.016 59.2628 330.204 59.2244 330.332 59.1903L331.112 62.8082C330.864 62.8935 330.511 62.9872 330.05 63.0895C329.599 63.1918 329.045 63.2514 328.388 63.2685C327.229 63.3026 326.185 63.1278 325.256 62.7443C324.327 62.3523 323.59 61.7472 323.045 60.929C322.508 60.1108 322.244 59.0881 322.252 57.8608V38.6591ZM334.624 63V43.3636H339.111V46.6364H339.316C339.674 45.5028 340.287 44.6293 341.157 44.0156C342.034 43.3935 343.036 43.0824 344.161 43.0824C344.417 43.0824 344.702 43.0952 345.017 43.1207C345.341 43.1378 345.61 43.1676 345.823 43.2102V47.4673C345.627 47.3991 345.316 47.3395 344.89 47.2884C344.472 47.2287 344.067 47.1989 343.675 47.1989C342.831 47.1989 342.073 47.3821 341.4 47.7486C340.735 48.1065 340.211 48.6051 339.827 49.2443C339.444 49.8835 339.252 50.6207 339.252 51.456V63H334.624ZM356.654 63.3835C354.737 63.3835 353.075 62.9616 351.668 62.1179C350.262 61.2741 349.171 60.0937 348.396 58.5767C347.629 57.0597 347.245 55.2869 347.245 53.2585C347.245 51.2301 347.629 49.4531 348.396 47.9276C349.171 46.402 350.262 45.2173 351.668 44.3736C353.075 43.5298 354.737 43.108 356.654 43.108C358.572 43.108 360.234 43.5298 361.64 44.3736C363.046 45.2173 364.133 46.402 364.9 47.9276C365.675 49.4531 366.063 51.2301 366.063 53.2585C366.063 55.2869 365.675 57.0597 364.9 58.5767C364.133 60.0937 363.046 61.2741 361.64 62.1179C360.234 62.9616 358.572 63.3835 356.654 63.3835ZM356.68 59.6761C357.719 59.6761 358.589 59.3906 359.288 58.8196C359.987 58.2401 360.506 57.4645 360.847 56.4929C361.197 55.5213 361.371 54.4389 361.371 53.2457C361.371 52.044 361.197 50.9574 360.847 49.9858C360.506 49.0057 359.987 48.2259 359.288 47.6463C358.589 47.0668 357.719 46.777 356.68 46.777C355.614 46.777 354.728 47.0668 354.021 47.6463C353.322 48.2259 352.798 49.0057 352.448 49.9858C352.107 50.9574 351.937 52.044 351.937 53.2457C351.937 54.4389 352.107 55.5213 352.448 56.4929C352.798 57.4645 353.322 58.2401 354.021 58.8196C354.728 59.3906 355.614 59.6761 356.68 59.6761ZM374.619 36.8182V63H369.991V36.8182H374.619Z" fill="#312727"/>
</svg>
